<?xml version="1.0" standalone="no"?>
<!DOCTYPE svg PUBLIC "-//W3C//DTD SVG 20010904//EN"
 "http://www.w3.org/TR/2001/REC-SVG-20010904/DTD/svg10.dtd">
<svg version="1.0" xmlns="http://www.w3.org/2000/svg"
 width="512.000000pt" height="512.000000pt" viewBox="0 0 512.000000 512.000000"
 preserveAspectRatio="xMidYMid meet">
<metadata>
Created by potrace 1.11, written by Peter Selinger 2001-2013
</metadata>
<g transform="translate(0.000000,512.000000) scale(0.100000,-0.100000)"
fill="#000000" stroke="none">
<path d="M0 2560 l0 -2560 2560 0 2560 0 0 2560 0 2560 -2560 0 -2560 0 0
-2560z m2915 1352 c204 -56 352 -163 418 -304 57 -119 69 -233 41 -379 -20
-110 -62 -195 -131 -270 -90 -96 -187 -157 -348 -215 -49 -18 -89 -37 -88 -43
2 -6 81 -115 176 -243 95 -128 233 -314 307 -413 155 -210 186 -247 254 -298
92 -69 166 -98 296 -112 24 -2 25 -6 25 -61 l0 -59 -326 -3 -325 -2 -120 182
c-239 367 -622 895 -663 918 -23 12 -210 13 -229 2 -10 -7 -12 -95 -10 -435 3
-412 4 -426 24 -454 35 -49 89 -66 264 -87 19 -3 39 -5 43 -5 4 -1 7 -27 5
-58 l-3 -58 -512 -3 -513 -2 0 60 c0 68 -10 62 129 80 136 16 176 52 192 167
15 110 7 1827 -9 1875 -7 20 -25 46 -39 58 -31 25 -136 56 -215 65 l-58 6 0
60 0 60 668 -4 c649 -3 669 -4 747 -25z"/>
<path d="M2198 3804 c-5 -4 -8 -241 -8 -527 l0 -520 173 6 c207 6 261 20 377
98 128 86 200 212 219 386 22 211 -43 381 -182 477 -90 62 -162 78 -382 83
-104 3 -193 2 -197 -3z"/>
</g>
</svg>
